# This file uses centimeters as units for non-parametric coordinates.

mtllib detector.mtl
g default
v 1.481938 5.024821 -0.580379
v 1.484597 4.882807 -0.859147
v 1.488737 4.661614 -1.080379
v 1.493954 4.382894 -1.222419
v 1.499737 4.073931 -1.271362
v 1.505520 3.764968 -1.222419
v 1.510738 3.486248 -1.080379
v 1.514878 3.265055 -0.859147
v 1.517536 3.123041 -0.580379
v 1.508488 3.082891 0.375968
v 1.507572 3.131826 0.684985
v 1.504914 3.273841 0.963753
v 1.500774 3.495034 1.184985
v 1.495557 3.773753 1.327024
v 1.489774 4.082716 1.375968
v 1.483990 4.391679 1.327024
v 1.478773 4.670399 1.184985
v 1.474633 4.891592 0.963753
v 1.471975 5.033606 0.684985
v 1.481022 5.073756 -0.271362
v -1.499737 4.017786 0.000000
vt 0.737764 0.172746
vt 0.702254 0.103054
vt 0.646946 0.047746
vt 0.577254 0.012236
vt 0.500000 -0.000000
vt 0.422746 0.012236
vt 0.353054 0.047746
vt 0.297746 0.103054
vt 0.262236 0.172746
vt 0.250000 0.250000
vt 0.262236 0.327254
vt 0.297746 0.396946
vt 0.353054 0.452254
vt 0.422746 0.487764
vt 0.500000 0.500000
vt 0.577254 0.487764
vt 0.646946 0.452254
vt 0.702254 0.396946
vt 0.737764 0.327254
vt 0.750000 0.250000
vt 0.250000 0.500000
vt 0.275000 0.500000
vt 0.300000 0.500000
vt 0.325000 0.500000
vt 0.350000 0.500000
vt 0.375000 0.500000
vt 0.400000 0.500000
vt 0.425000 0.500000
vt 0.450000 0.500000
vt 0.475000 0.500000
vt 0.500000 0.500000
vt 0.525000 0.500000
vt 0.550000 0.500000
vt 0.575000 0.500000
vt 0.600000 0.500000
vt 0.625000 0.500000
vt 0.650000 0.500000
vt 0.675000 0.500000
vt 0.700000 0.500000
vt 0.725000 0.500000
vt 0.750000 0.500000
vt 0.500000 1.000000
vn 0.999828 0.018019 0.004394
vn 0.999828 0.018019 0.004394
vn 0.999828 0.018019 0.004394
vn 0.999828 0.018019 0.004394
vn 0.999828 0.018019 0.004394
vn 0.999828 0.018019 0.004394
vn 0.999828 0.018019 0.004394
vn 0.999828 0.018019 0.004394
vn 0.999828 0.018019 0.004394
vn 0.999828 0.018019 0.004394
vn 0.999828 0.018019 0.004394
vn 0.999828 0.018019 0.004394
vn 0.999828 0.018019 0.004394
vn 0.999828 0.018019 0.004394
vn 0.999828 0.018019 0.004394
vn 0.999828 0.018019 0.004394
vn 0.999828 0.018019 0.004394
vn 0.999828 0.018019 0.004394
vn 0.999828 0.018019 0.004394
vn 0.999828 0.018019 0.004394
vn -0.357006 0.885290 -0.298007
vn -0.374906 0.743716 -0.553473
vn -0.999753 -0.019598 -0.010520
vn -0.386849 0.533487 -0.752157
vn -0.392010 0.275331 -0.877793
vn -0.390126 -0.007303 -0.920732
vn -0.381431 -0.289809 -0.877793
vn -0.366613 -0.547591 -0.752157
vn -0.346811 -0.757225 -0.553473
vn -0.307630 -0.939449 -0.150997
vn -0.297772 -0.954596 0.008822
vn -0.331814 -0.894375 0.299987
vn -0.362912 -0.750848 0.551836
vn -0.388780 -0.540981 0.745782
vn -0.407541 -0.285709 0.867341
vn -0.417957 -0.007565 0.908435
vn -0.419321 0.270512 0.866599
vn -0.411409 0.525674 0.744587
vn -0.394530 0.735614 0.550653
vn -0.350233 0.924931 0.147784
vn -0.334910 0.942167 -0.012481
s off
g pCone1
usemtl initialShadingGroup
f 1/1/1 20/20/2 19/19/3 18/18/4 17/17/5 16/16/6 15/15/7 14/14/8 13/13/9 12/12/10 11/11/11 10/10/12 9/9/13 8/8/14 7/7/15 6/6/16 5/5/17 4/4/18 3/3/19 2/2/20
s 1
f 1/21/21 2/22/22 21/42/23
f 2/22/22 3/23/24 21/42/23
f 3/23/24 4/24/25 21/42/23
f 4/24/25 5/25/26 21/42/23
f 5/25/26 6/26/27 21/42/23
f 6/26/27 7/27/28 21/42/23
f 7/27/28 8/28/29 21/42/23
f 8/28/29 9/29/30 21/42/23
f 9/29/30 10/30/31 21/42/23
f 10/30/31 11/31/32 21/42/23
f 11/31/32 12/32/33 21/42/23
f 12/32/33 13/33/34 21/42/23
f 13/33/34 14/34/35 21/42/23
f 14/34/35 15/35/36 21/42/23
f 15/35/36 16/36/37 21/42/23
f 16/36/37 17/37/38 21/42/23
f 17/37/38 18/38/39 21/42/23
f 18/38/39 19/39/40 21/42/23
f 19/39/40 20/40/41 21/42/23
f 20/40/41 1/41/21 21/42/23
