# This file uses meters as units for non-parametric coordinates.

mtllib VentAsset.mtl
g default
v -100.000000 45.319271 156.625431
v 100.000000 45.319271 156.625431
v -100.000000 245.319271 156.625431
v 100.000000 245.319271 156.625431
v -100.000000 245.319271 -156.625431
v 100.000000 245.319271 -156.625431
v -100.000000 45.319271 -156.625431
v 100.000000 45.319271 -156.625431
v -85.720291 59.598980 156.625431
v 85.720291 59.598980 156.625431
v 85.720291 231.039563 156.625431
v -85.720291 231.039563 156.625431
v -85.720291 59.598980 -157.295659
v 85.720291 59.598980 -157.295659
v 85.720291 231.039563 -157.295659
v -85.720291 231.039563 -157.295659
v -100.000000 245.319271 -156.625431
v 100.000000 245.319271 -156.625431
v 100.000000 45.319271 -156.625431
v -100.000000 45.319271 -156.625431
v -85.817581 231.136853 -156.625431
v 85.817581 231.136853 -156.625431
v 85.817581 59.501690 -156.625431
v -85.817581 59.501690 -156.625431
vt 0.375000 0.000000
vt 0.625000 0.000000
vt 0.375000 0.250000
vt 0.625000 0.250000
vt 0.375000 0.500000
vt 0.625000 0.500000
vt 0.375000 0.750000
vt 0.625000 0.750000
vt 0.375000 1.000000
vt 0.625000 1.000000
vt 0.875000 0.000000
vt 0.875000 0.250000
vt 0.125000 0.000000
vt 0.125000 0.250000
vt 0.375000 0.000000
vt 0.625000 0.000000
vt 0.625000 0.250000
vt 0.375000 0.250000
vt 0.375000 0.000000
vt 0.625000 0.000000
vt 0.625000 0.250000
vt 0.375000 0.250000
vt 0.375000 0.500000
vt 0.625000 0.500000
vt 0.625000 0.750000
vt 0.375000 0.750000
vt 0.375000 0.500000
vt 0.625000 0.500000
vt 0.625000 0.750000
vt 0.375000 0.750000
vn 0.000000 1.000000 0.000000
vn 0.000000 1.000000 0.000000
vn 0.000000 1.000000 0.000000
vn 0.000000 1.000000 0.000000
vn 0.000000 -1.000000 0.000000
vn 0.000000 -1.000000 0.000000
vn 0.000000 -1.000000 0.000000
vn 0.000000 -1.000000 0.000000
vn 1.000000 0.000000 0.000000
vn 1.000000 0.000000 0.000000
vn 1.000000 0.000000 0.000000
vn 1.000000 0.000000 0.000000
vn -1.000000 0.000000 0.000000
vn -1.000000 0.000000 0.000000
vn -1.000000 0.000000 0.000000
vn -1.000000 0.000000 0.000000
vn 0.000000 0.000000 1.000000
vn 0.000000 0.000000 1.000000
vn 0.000000 0.000000 1.000000
vn 0.000000 0.000000 1.000000
vn 0.000000 0.000000 1.000000
vn 0.000000 0.000000 1.000000
vn 0.000000 0.000000 1.000000
vn 0.000000 0.000000 1.000000
vn 0.000000 0.000000 1.000000
vn 0.000000 0.000000 1.000000
vn 0.000000 0.000000 1.000000
vn 0.000000 0.000000 1.000000
vn -0.000000 0.000000 1.000000
vn -0.000000 0.000000 1.000000
vn -0.000000 0.000000 1.000000
vn -0.000000 0.000000 1.000000
vn 0.000000 1.000000 0.000000
vn 0.000000 1.000000 0.000000
vn 0.000000 1.000000 0.000000
vn 0.000000 1.000000 0.000000
vn -1.000000 0.000000 0.000000
vn -1.000000 0.000000 0.000000
vn -1.000000 0.000000 0.000000
vn -1.000000 0.000000 0.000000
vn 0.000000 -1.000000 0.000000
vn 0.000000 -1.000000 0.000000
vn 0.000000 -1.000000 0.000000
vn 0.000000 -1.000000 0.000000
vn 1.000000 0.000000 0.000000
vn 1.000000 0.000000 0.000000
vn 1.000000 0.000000 0.000000
vn 1.000000 0.000000 0.000000
vn 0.000000 0.000000 0.000000
vn 0.000000 0.000000 0.000000
vn 0.000000 0.000000 0.000000
vn 0.000000 0.000000 0.000000
vn 0.000000 0.000000 0.000000
vn 0.000000 0.000000 0.000000
vn 0.000000 0.000000 0.000000
vn 0.000000 0.000000 0.000000
vn 0.000000 0.000000 0.000000
vn 0.000000 0.000000 0.000000
vn 0.000000 0.000000 0.000000
vn 0.000000 0.000000 0.000000
vn 0.000000 0.000000 0.000000
vn 0.000000 0.000000 0.000000
vn 0.000000 0.000000 0.000000
vn 0.000000 0.000000 0.000000
vn 0.000000 0.000000 -1.000000
vn 0.000000 0.000000 -1.000000
vn 0.000000 0.000000 -1.000000
vn 0.000000 0.000000 -1.000000
vn -0.000000 0.000000 -1.000000
vn -0.000000 0.000000 -1.000000
vn -0.000000 0.000000 -1.000000
vn -0.000000 0.000000 -1.000000
vn 0.000000 0.000000 -1.000000
vn 0.000000 0.000000 -1.000000
vn 0.000000 0.000000 -1.000000
vn 0.000000 0.000000 -1.000000
vn 0.000000 0.000000 -1.000000
vn 0.000000 0.000000 -1.000000
vn 0.000000 0.000000 -1.000000
vn 0.000000 0.000000 -1.000000
s off
g pCube1
usemtl initialShadingGroup
f 3/3/1 4/4/2 6/6/3 5/5/4
f 7/7/5 8/8/6 2/10/7 1/9/8
f 2/2/9 8/11/10 6/12/11 4/4/12
f 7/13/13 1/1/14 3/3/15 5/14/16
f 1/1/17 2/2/18 10/16/19 9/15/20
f 2/2/21 4/4/22 11/17/23 10/16/24
f 4/4/25 3/3/26 12/18/27 11/17/28
f 3/3/29 1/1/30 9/15/31 12/18/32
f 9/15/33 10/16/34 14/20/35 13/19/36
f 10/16/37 11/17/38 15/21/39 14/20/40
f 11/17/41 12/18/42 16/22/43 15/21/44
f 12/18/45 9/15/46 13/19/47 16/22/48
f 5/5/49 6/6/50 18/24/51 17/23/52
f 6/6/53 8/8/54 19/25/55 18/24/56
f 8/8/57 7/7/58 20/26/59 19/25/60
f 7/7/61 5/5/62 17/23/63 20/26/64
f 17/23/65 18/24/66 22/28/67 21/27/68
f 18/24/69 19/25/70 23/29/71 22/28/72
f 19/25/73 20/26/74 24/30/75 23/29/76
f 20/26/77 17/23/78 21/27/79 24/30/80
g default
v -86.762100 66.055893 148.725861
v 86.762100 66.055893 148.725861
v -86.762100 71.922729 151.627960
v 86.762100 71.922729 151.627960
v -86.762100 88.679840 117.752037
v 86.762100 88.679840 117.752037
v -86.762100 82.813004 114.849937
v 86.762100 82.813004 114.849937
v -86.762100 93.179886 148.725861
v 86.762100 93.179886 148.725861
v -86.762100 99.046730 151.627960
v 86.762100 99.046730 151.627960
v -86.762100 115.803848 117.752037
v 86.762100 115.803848 117.752037
v -86.762100 109.937004 114.849937
v 86.762100 109.937004 114.849937
v -86.762100 122.643211 148.725861
v 86.762100 122.643211 148.725861
v -86.762100 128.510056 151.627960
v 86.762100 128.510056 151.627960
v -86.762100 145.267166 117.752037
v 86.762100 145.267166 117.752037
v -86.762100 139.400314 114.849937
v 86.762100 139.400314 114.849937
v -86.762100 151.790543 148.725861
v 86.762100 151.790543 148.725861
v -86.762100 157.657394 151.627960
v 86.762100 157.657394 151.627960
v -86.762100 174.414505 117.752037
v 86.762100 174.414505 117.752037
v -86.762100 168.547653 114.849937
v 86.762100 168.547653 114.849937
v -86.762100 181.293365 148.725861
v 86.762100 181.293365 148.725861
v -86.762100 187.160217 151.627960
v 86.762100 187.160217 151.627960
v -86.762100 203.917328 117.752037
v 86.762100 203.917328 117.752037
v -86.762100 198.050476 114.849937
v 86.762100 198.050476 114.849937
v -86.762100 211.307648 148.725861
v 86.762100 211.307648 148.725861
v -86.762100 217.174500 151.627960
v 86.762100 217.174500 151.627960
v -86.762100 233.931610 117.752037
v 86.762100 233.931610 117.752037
v -86.762100 228.064758 114.849937
v 86.762100 228.064758 114.849937
vt 0.375000 0.000000
vt 0.625000 0.000000
vt 0.625000 0.250000
vt 0.375000 0.250000
vt 0.625000 0.500000
vt 0.375000 0.500000
vt 0.625000 0.750000
vt 0.375000 0.750000
vt 0.625000 1.000000
vt 0.375000 1.000000
vt 0.875000 0.000000
vt 0.875000 0.250000
vt 0.125000 0.000000
vt 0.125000 0.250000
vt 0.375000 0.000000
vt 0.625000 0.000000
vt 0.625000 0.250000
vt 0.375000 0.250000
vt 0.625000 0.500000
vt 0.375000 0.500000
vt 0.625000 0.750000
vt 0.375000 0.750000
vt 0.625000 1.000000
vt 0.375000 1.000000
vt 0.875000 0.000000
vt 0.875000 0.250000
vt 0.125000 0.000000
vt 0.125000 0.250000
vt 0.375000 0.000000
vt 0.625000 0.000000
vt 0.625000 0.250000
vt 0.375000 0.250000
vt 0.625000 0.500000
vt 0.375000 0.500000
vt 0.625000 0.750000
vt 0.375000 0.750000
vt 0.625000 1.000000
vt 0.375000 1.000000
vt 0.875000 0.000000
vt 0.875000 0.250000
vt 0.125000 0.000000
vt 0.125000 0.250000
vt 0.375000 0.000000
vt 0.625000 0.000000
vt 0.625000 0.250000
vt 0.375000 0.250000
vt 0.625000 0.500000
vt 0.375000 0.500000
vt 0.625000 0.750000
vt 0.375000 0.750000
vt 0.625000 1.000000
vt 0.375000 1.000000
vt 0.875000 0.000000
vt 0.875000 0.250000
vt 0.125000 0.000000
vt 0.125000 0.250000
vt 0.375000 0.000000
vt 0.625000 0.000000
vt 0.625000 0.250000
vt 0.375000 0.250000
vt 0.625000 0.500000
vt 0.375000 0.500000
vt 0.625000 0.750000
vt 0.375000 0.750000
vt 0.625000 1.000000
vt 0.375000 1.000000
vt 0.875000 0.000000
vt 0.875000 0.250000
vt 0.125000 0.000000
vt 0.125000 0.250000
vt 0.375000 0.000000
vt 0.625000 0.000000
vt 0.625000 0.250000
vt 0.375000 0.250000
vt 0.625000 0.500000
vt 0.375000 0.500000
vt 0.625000 0.750000
vt 0.375000 0.750000
vt 0.625000 1.000000
vt 0.375000 1.000000
vt 0.875000 0.000000
vt 0.875000 0.250000
vt 0.125000 0.000000
vt 0.125000 0.250000
vn 0.000000 -0.443382 0.896333
vn 0.000000 -0.443382 0.896333
vn 0.000000 -0.443382 0.896333
vn 0.000000 -0.443382 0.896333
vn 0.000000 0.896333 0.443381
vn 0.000000 0.896333 0.443381
vn 0.000000 0.896333 0.443381
vn 0.000000 0.896333 0.443381
vn 0.000000 0.443382 -0.896333
vn 0.000000 0.443382 -0.896333
vn 0.000000 0.443382 -0.896333
vn 0.000000 0.443382 -0.896333
vn 0.000000 -0.896333 -0.443381
vn 0.000000 -0.896333 -0.443381
vn 0.000000 -0.896333 -0.443381
vn 0.000000 -0.896333 -0.443381
vn 1.000000 0.000000 0.000000
vn 1.000000 0.000000 0.000000
vn 1.000000 0.000000 0.000000
vn 1.000000 0.000000 0.000000
vn -1.000000 -0.000000 0.000000
vn -1.000000 -0.000000 0.000000
vn -1.000000 -0.000000 0.000000
vn -1.000000 -0.000000 0.000000
vn 0.000000 -0.443381 0.896333
vn 0.000000 -0.443381 0.896333
vn 0.000000 -0.443381 0.896333
vn 0.000000 -0.443381 0.896333
vn 0.000000 0.896333 0.443382
vn 0.000000 0.896333 0.443382
vn 0.000000 0.896333 0.443382
vn 0.000000 0.896333 0.443382
vn 0.000000 0.443381 -0.896333
vn 0.000000 0.443381 -0.896333
vn 0.000000 0.443381 -0.896333
vn 0.000000 0.443381 -0.896333
vn 0.000000 -0.896333 -0.443382
vn 0.000000 -0.896333 -0.443382
vn 0.000000 -0.896333 -0.443382
vn 0.000000 -0.896333 -0.443382
vn 1.000000 0.000000 0.000000
vn 1.000000 0.000000 0.000000
vn 1.000000 0.000000 0.000000
vn 1.000000 0.000000 0.000000
vn -1.000000 -0.000000 0.000000
vn -1.000000 -0.000000 0.000000
vn -1.000000 -0.000000 0.000000
vn -1.000000 -0.000000 0.000000
vn 0.000000 -0.443381 0.896334
vn 0.000000 -0.443381 0.896334
vn 0.000000 -0.443381 0.896334
vn 0.000000 -0.443381 0.896334
vn 0.000000 0.896333 0.443381
vn 0.000000 0.896333 0.443381
vn 0.000000 0.896333 0.443381
vn 0.000000 0.896333 0.443381
vn 0.000000 0.443381 -0.896334
vn 0.000000 0.443381 -0.896334
vn 0.000000 0.443381 -0.896334
vn 0.000000 0.443381 -0.896334
vn 0.000000 -0.896333 -0.443381
vn 0.000000 -0.896333 -0.443381
vn 0.000000 -0.896333 -0.443381
vn 0.000000 -0.896333 -0.443381
vn 1.000000 0.000000 0.000000
vn 1.000000 0.000000 0.000000
vn 1.000000 0.000000 0.000000
vn 1.000000 0.000000 0.000000
vn -1.000000 -0.000000 0.000000
vn -1.000000 -0.000000 0.000000
vn -1.000000 -0.000000 0.000000
vn -1.000000 -0.000000 0.000000
vn 0.000000 -0.443381 0.896334
vn 0.000000 -0.443381 0.896334
vn 0.000000 -0.443381 0.896334
vn 0.000000 -0.443381 0.896334
vn 0.000000 0.896333 0.443381
vn 0.000000 0.896333 0.443381
vn 0.000000 0.896333 0.443381
vn 0.000000 0.896333 0.443381
vn 0.000000 0.443381 -0.896333
vn 0.000000 0.443381 -0.896333
vn 0.000000 0.443381 -0.896333
vn 0.000000 0.443381 -0.896333
vn 0.000000 -0.896333 -0.443382
vn 0.000000 -0.896333 -0.443382
vn 0.000000 -0.896333 -0.443382
vn 0.000000 -0.896333 -0.443382
vn 1.000000 0.000000 0.000000
vn 1.000000 0.000000 0.000000
vn 1.000000 0.000000 0.000000
vn 1.000000 0.000000 0.000000
vn -1.000000 -0.000000 0.000000
vn -1.000000 -0.000000 0.000000
vn -1.000000 -0.000000 0.000000
vn -1.000000 -0.000000 0.000000
vn 0.000000 -0.443381 0.896333
vn 0.000000 -0.443381 0.896333
vn 0.000000 -0.443381 0.896333
vn 0.000000 -0.443381 0.896333
vn 0.000000 0.896333 0.443381
vn 0.000000 0.896333 0.443381
vn 0.000000 0.896333 0.443381
vn 0.000000 0.896333 0.443381
vn 0.000000 0.443381 -0.896333
vn 0.000000 0.443381 -0.896333
vn 0.000000 0.443381 -0.896333
vn 0.000000 0.443381 -0.896333
vn 0.000000 -0.896333 -0.443381
vn 0.000000 -0.896333 -0.443381
vn 0.000000 -0.896333 -0.443381
vn 0.000000 -0.896333 -0.443381
vn 1.000000 0.000000 0.000000
vn 1.000000 0.000000 0.000000
vn 1.000000 0.000000 0.000000
vn 1.000000 0.000000 0.000000
vn -1.000000 -0.000000 0.000000
vn -1.000000 -0.000000 0.000000
vn -1.000000 -0.000000 0.000000
vn -1.000000 -0.000000 0.000000
vn 0.000000 -0.443381 0.896333
vn 0.000000 -0.443381 0.896333
vn 0.000000 -0.443381 0.896333
vn 0.000000 -0.443381 0.896333
vn 0.000000 0.896333 0.443382
vn 0.000000 0.896333 0.443382
vn 0.000000 0.896333 0.443382
vn 0.000000 0.896333 0.443382
vn 0.000000 0.443380 -0.896334
vn 0.000000 0.443380 -0.896334
vn 0.000000 0.443380 -0.896334
vn 0.000000 0.443380 -0.896334
vn 0.000000 -0.896333 -0.443381
vn 0.000000 -0.896333 -0.443381
vn 0.000000 -0.896333 -0.443381
vn 0.000000 -0.896333 -0.443381
vn 1.000000 0.000000 0.000000
vn 1.000000 0.000000 0.000000
vn 1.000000 0.000000 0.000000
vn 1.000000 0.000000 0.000000
vn -1.000000 -0.000000 0.000000
vn -1.000000 -0.000000 0.000000
vn -1.000000 -0.000000 0.000000
vn -1.000000 -0.000000 0.000000
s off
g polySurface6
usemtl initialShadingGroup
f 25/31/81 26/32/82 28/33/83 27/34/84
f 27/34/85 28/33/86 30/35/87 29/36/88
f 29/36/89 30/35/90 32/37/91 31/38/92
f 31/38/93 32/37/94 26/39/95 25/40/96
f 26/32/97 32/41/98 30/42/99 28/33/100
f 31/43/101 25/31/102 27/34/103 29/44/104
f 33/45/105 34/46/106 36/47/107 35/48/108
f 35/48/109 36/47/110 38/49/111 37/50/112
f 37/50/113 38/49/114 40/51/115 39/52/116
f 39/52/117 40/51/118 34/53/119 33/54/120
f 34/46/121 40/55/122 38/56/123 36/47/124
f 39/57/125 33/45/126 35/48/127 37/58/128
f 41/59/129 42/60/130 44/61/131 43/62/132
f 43/62/133 44/61/134 46/63/135 45/64/136
f 45/64/137 46/63/138 48/65/139 47/66/140
f 47/66/141 48/65/142 42/67/143 41/68/144
f 42/60/145 48/69/146 46/70/147 44/61/148
f 47/71/149 41/59/150 43/62/151 45/72/152
f 49/73/153 50/74/154 52/75/155 51/76/156
f 51/76/157 52/75/158 54/77/159 53/78/160
f 53/78/161 54/77/162 56/79/163 55/80/164
f 55/80/165 56/79/166 50/81/167 49/82/168
f 50/74/169 56/83/170 54/84/171 52/75/172
f 55/85/173 49/73/174 51/76/175 53/86/176
f 57/87/177 58/88/178 60/89/179 59/90/180
f 59/90/181 60/89/182 62/91/183 61/92/184
f 61/92/185 62/91/186 64/93/187 63/94/188
f 63/94/189 64/93/190 58/95/191 57/96/192
f 58/88/193 64/97/194 62/98/195 60/89/196
f 63/99/197 57/87/198 59/90/199 61/100/200
f 65/101/201 66/102/202 68/103/203 67/104/204
f 67/104/205 68/103/206 70/105/207 69/106/208
f 69/106/209 70/105/210 72/107/211 71/108/212
f 71/108/213 72/107/214 66/109/215 65/110/216
f 66/102/217 72/111/218 70/112/219 68/103/220
f 71/113/221 65/101/222 67/104/223 69/114/224
